HIERARCHY
ROOT Hips
{
	OFFSET 0.000000 89.005402 0.000000
	CHANNELS 6 Xposition Yposition Zposition Xrotation Yrotation Zrotation
	JOINT Spine
	{
		OFFSET 0.116900 10.681000 0.373400
		CHANNELS 3 Xrotation Yrotation Zrotation
		JOINT Spine1
		{
			OFFSET 0.000000 13.840401 0.053500
			CHANNELS 3 Xrotation Yrotation Zrotation
			JOINT Spine2
			{
				OFFSET 0.000000 14.712700 -0.366200
				CHANNELS 3 Xrotation Yrotation Zrotation
				JOINT Neck
				{
					OFFSET 0.000000 35.415497 -3.314200
					CHANNELS 3 Xrotation Yrotation Zrotation
					JOINT Head
					{
						OFFSET 0.000000 16.899200 1.218300
						CHANNELS 3 Xrotation Yrotation Zrotation
						JOINT HeadTop_End
						{
							OFFSET 0.000000 22.206207 2.192500
							CHANNELS 3 Xrotation Yrotation Zrotation
							End Site
							{
								OFFSET 0.000000 22.314178 0.000000
							}
						}
					}
				}
				JOINT LeftShoulder
				{
					OFFSET 12.896400 26.716293 -4.548400
					CHANNELS 3 Xrotation Yrotation Zrotation
					JOINT LeftArm
					{
						OFFSET 19.027000 -4.857010 -1.718400
						CHANNELS 3 Xrotation Yrotation Zrotation
						JOINT LeftForeArm
						{
							OFFSET 24.179897 0.000000 0.000000
							CHANNELS 3 Xrotation Yrotation Zrotation
							JOINT LeftHand
							{
								OFFSET 27.156403 0.000000 0.000000
								CHANNELS 3 Xrotation Yrotation Zrotation
								JOINT LeftHandIndex1
								{
									OFFSET 16.441200 0.000000 0.000000
									CHANNELS 3 Xrotation Yrotation Zrotation
									JOINT LeftHandIndex2
									{
										OFFSET 4.821899 0.000000 0.000000
										CHANNELS 3 Xrotation Yrotation Zrotation
										JOINT LeftHandIndex3
										{
											OFFSET 6.386497 0.000000 0.000000
											CHANNELS 3 Xrotation Yrotation Zrotation
											JOINT LeftHandIndex4
											{
												OFFSET 5.188988 0.000000 0.000000
												CHANNELS 3 Xrotation Yrotation Zrotation
												End Site
												{
													OFFSET -0.178703 5.185913 0.000177
												}
											}
										}
									}
								}
								JOINT LeftHandThumb1
								{
									OFFSET 6.534897 -5.032593 5.900300
									CHANNELS 3 Xrotation Yrotation Zrotation
									JOINT LeftHandThumb2
									{
										OFFSET 3.818176 -2.204422 2.204423
										CHANNELS 3 Xrotation Yrotation Zrotation
										JOINT LeftHandThumb3
										{
											OFFSET 3.252098 -1.877594 1.877601
											CHANNELS 3 Xrotation Yrotation Zrotation
											JOINT LeftHandThumb4
											{
												OFFSET 5.251778 -3.032120 3.032117
												CHANNELS 3 Xrotation Yrotation Zrotation
												End Site
												{
													OFFSET 0.000023 6.780014 0.000000
												}
											}
										}
									}
								}
							}
						}
					}
				}
				JOINT RightShoulder
				{
					OFFSET -12.896300 26.716293 -4.548400
					CHANNELS 3 Xrotation Yrotation Zrotation
					JOINT RightArm
					{
						OFFSET -19.027000 -4.857010 -1.718400
						CHANNELS 3 Xrotation Yrotation Zrotation
						JOINT RightForeArm
						{
							OFFSET -24.179897 0.000000 0.000000
							CHANNELS 3 Xrotation Yrotation Zrotation
							JOINT RightHand
							{
								OFFSET -27.156403 0.000000 0.000000
								CHANNELS 3 Xrotation Yrotation Zrotation
								JOINT RightHandThumb1
								{
									OFFSET -6.591202 -4.852203 5.988100
									CHANNELS 3 Xrotation Yrotation Zrotation
									JOINT RightHandThumb2
									{
										OFFSET -3.818176 -2.204422 2.204423
										CHANNELS 3 Xrotation Yrotation Zrotation
										JOINT RightHandThumb3
										{
											OFFSET -3.252098 -1.877594 1.877601
											CHANNELS 3 Xrotation Yrotation Zrotation
											JOINT RightHandThumb4
											{
												OFFSET -5.251778 -3.032120 3.032117
												CHANNELS 3 Xrotation Yrotation Zrotation
												End Site
												{
													OFFSET -0.000023 6.780014 0.000000
												}
											}
										}
									}
								}
								JOINT RightHandIndex1
								{
									OFFSET -16.029404 0.000000 0.000000
									CHANNELS 3 Xrotation Yrotation Zrotation
									JOINT RightHandIndex2
									{
										OFFSET -5.213303 0.000000 0.000000
										CHANNELS 3 Xrotation Yrotation Zrotation
										JOINT RightHandIndex3
										{
											OFFSET -6.386528 0.000000 0.000000
											CHANNELS 3 Xrotation Yrotation Zrotation
											JOINT RightHandIndex4
											{
												OFFSET -5.189026 0.000000 0.000000
												CHANNELS 3 Xrotation Yrotation Zrotation
												End Site
												{
													OFFSET 0.236702 5.183624 0.001972
												}
											}
										}
									}
								}
							}
						}
					}
				}
			}
		}
	}
	JOINT LeftUpLeg
	{
		OFFSET 14.073000 -7.904099 -1.463000
		CHANNELS 3 Xrotation Yrotation Zrotation
		JOINT LeftLeg
		{
			OFFSET -0.109806 -34.073280 4.093200
			CHANNELS 3 Xrotation Yrotation Zrotation
			JOINT LeftFoot
			{
				OFFSET 0.109806 -29.899420 -6.319000
				CHANNELS 3 Xrotation Yrotation Zrotation
				JOINT LeftToeBase
				{
					OFFSET 1.551100 -14.988700 20.535801
					CHANNELS 3 Xrotation Yrotation Zrotation
					JOINT LeftToe_End
					{
						OFFSET 0.221200 0.570800 13.248301
						CHANNELS 3 Xrotation Yrotation Zrotation
						End Site
						{
							OFFSET 0.000000 13.262435 0.000000
						}
					}
				}
			}
		}
	}
	JOINT RightUpLeg
	{
		OFFSET -13.839300 -7.904099 -1.463000
		CHANNELS 3 Xrotation Yrotation Zrotation
		JOINT RightLeg
		{
			OFFSET 0.109694 -34.073219 4.093300
			CHANNELS 3 Xrotation Yrotation Zrotation
			JOINT RightFoot
			{
				OFFSET -0.109694 -29.899384 -6.319200
				CHANNELS 3 Xrotation Yrotation Zrotation
				JOINT RightToeBase
				{
					OFFSET -1.551100 -14.988700 20.535801
					CHANNELS 3 Xrotation Yrotation Zrotation
					JOINT RightToe_End
					{
						OFFSET -0.221200 0.570900 13.248299
						CHANNELS 3 Xrotation Yrotation Zrotation
						End Site
						{
							OFFSET 0.000000 13.262440 0.000000
						}
					}
				}
			}
		}
	}
}
MOTION
Frames: 8
Frame Time: 0.033333
-4.187723 78.911621 43.047729 29.583540 5.711771 -17.600228 6.179395 12.430817 -8.535603 11.648225 11.205353 -7.545690 11.698380 11.155145 -7.567839 -9.883399 -7.149085 7.463517 -30.256331 -33.917661 18.385664 0.000003 -0.000000 -0.000000 -0.266298 3.848959 2.890077 28.180083 -44.869842 -18.300140 -0.000001 -24.379722 0.000012 -6.282329 38.817007 -1.221453 0.013968 0.439248 -3.642314 0.025883 0.597743 -4.959525 0.006484 0.299164 -2.479702 -0.000002 0.000002 -0.000001 -3.708771 -5.344626 -9.285597 10.685382 16.536445 0.020116 2.736433 5.880188 2.697138 0.000000 0.000000 0.000001 4.952149 16.802284 -7.381370 -6.598530 60.118219 21.651642 -0.000026 37.609122 0.000019 -29.432586 -31.794975 -16.154833 31.276457 -0.747338 -0.159460 -3.876765 -9.680803 -4.069538 -5.448484 -0.536438 -3.405185 0.000002 0.000000 -0.000001 0.578531 -2.781512 23.494939 0.464457 -2.503096 21.020974 0.117038 -1.272904 10.505442 -0.000002 -0.000003 0.000001 -72.316144 -2.694478 13.016955 36.449260 8.445111 -6.481169 4.949881 0.506922 8.190554 -0.206842 -0.000017 -0.000000 0.000000 -0.000002 0.000000 -5.281510 -24.286968 -19.126823 75.183553 -3.032798 -3.198560 27.829928 1.125254 5.300792 0.000009 0.000004 -0.000010 -0.000003 0.000001 -0.000003 
-4.397009 78.613251 43.855118 27.904471 6.882199 -17.346778 6.200058 10.883349 -9.191047 11.743715 10.656879 -7.606247 11.859985 10.534734 -7.618945 -10.124068 -6.973860 7.156024 -30.258776 -33.172470 18.493005 -0.000001 -0.000000 0.000000 -0.246496 3.605301 3.561310 28.114713 -48.438872 -10.572338 0.000003 -21.961920 -0.000003 -10.198608 36.602659 -1.666785 0.013966 0.439250 -3.642314 0.025882 0.597747 -4.959527 0.006484 0.299163 -2.479703 0.000000 -0.000002 0.000000 -3.708773 -5.344628 -9.285594 10.685380 16.536446 0.020115 2.736435 5.880187 2.697137 -0.000001 -0.000001 0.000000 4.570590 15.669538 -6.602658 -6.422858 55.485834 16.577561 -0.000001 34.357590 0.000012 -33.438062 -29.057411 -18.368938 31.163927 -0.844518 -0.217469 -3.862222 -9.728349 -4.073806 -5.440185 -0.559749 -3.408891 0.000002 -0.000002 -0.000000 0.576943 -2.777849 23.461987 0.461894 -2.496405 20.962141 0.116377 -1.269377 10.476036 0.000001 -0.000002 0.000000 -71.277846 -1.605249 13.174305 38.918281 6.763287 -6.380001 3.044302 0.454987 8.061578 -0.218912 0.000000 0.000001 0.000000 -0.000002 -0.000000 -7.915651 -23.758600 -17.943269 71.692227 -1.717638 -3.605282 28.393873 0.750307 3.351016 0.000005 0.000000 -0.000005 0.000002 0.000000 -0.000000 
-4.478846 78.457359 44.724987 26.163043 8.021431 -17.118863 6.294414 9.192063 -9.857910 12.021819 9.741558 -7.730871 12.202102 9.561371 -7.685876 -10.392267 -6.743319 6.915847 -30.125277 -32.065139 18.818932 0.000000 -0.000000 -0.000000 -0.221349 3.342402 4.318550 24.076398 -51.955951 -5.803409 0.000010 -19.112199 0.000000 -13.648102 33.544381 -0.676163 0.013967 0.439250 -3.642316 0.025883 0.597747 -4.959524 0.006485 0.299167 -2.479703 -0.000000 -0.000002 -0.000000 -3.708772 -5.344626 -9.285599 10.685378 16.536443 0.020115 2.736440 5.880185 2.697138 -0.000002 0.000002 -0.000002 4.269301 14.317940 -6.742138 -7.185933 51.966668 12.264317 -0.000009 31.452785 0.000019 -35.753455 -25.271987 -18.973634 31.042971 -0.948572 -0.279907 -3.846464 -9.780089 -4.078417 -5.431119 -0.585101 -3.412922 -0.000003 0.000002 0.000001 0.575227 -2.773889 23.426553 0.458945 -2.488727 20.894496 0.115625 -1.265351 10.442261 0.000001 -0.000001 0.000001 -69.920175 -0.210099 13.275752 40.947100 4.943051 -5.910182 1.202540 0.394085 7.988442 -0.229838 -0.000005 0.000003 -0.000000 -0.000000 0.000000 -10.402323 -22.922692 -16.926703 67.951182 -0.696432 -4.352483 28.532892 0.615662 2.721785 0.000007 -0.000006 0.000002 -0.000000 0.000003 -0.000001 
-4.239178 78.483002 45.749531 24.246415 9.121561 -16.783732 6.451075 7.300504 -10.453359 12.485679 8.293028 -7.856386 12.725230 8.079470 -7.691590 -10.634251 -6.399416 6.712325 -29.551490 -30.333512 19.557407 -0.000001 0.000000 0.000000 -0.170778 3.027218 5.120396 16.174742 -54.878350 -4.109484 -0.000002 -16.222512 -0.000002 -14.690659 31.653405 -0.163404 0.013969 0.439252 -3.642314 0.025885 0.597743 -4.959525 0.006486 0.299165 -2.479700 -0.000001 0.000006 0.000000 -3.708772 -5.344622 -9.285597 10.685381 16.536443 0.020116 2.736434 5.880186 2.697135 0.000000 -0.000000 -0.000002 4.077271 13.192557 -7.620843 -8.728137 49.548033 8.555974 0.000015 29.088358 -0.000008 -35.960704 -21.841130 -17.685173 30.914894 -1.058280 -0.346052 -3.829594 -9.835348 -4.083389 -5.421452 -0.612196 -3.417210 -0.000001 -0.000001 -0.000000 0.573403 -2.769695 23.389010 0.455691 -2.480187 20.819257 0.114803 -1.260839 10.404700 0.000001 0.000000 -0.000000 -67.848722 1.127412 13.097545 42.678065 3.634153 -5.236599 -0.852081 0.296431 7.901452 -0.235198 -0.000010 0.000001 0.000000 0.000000 0.000000 -12.921952 -22.154598 -16.188460 63.828910 0.484868 -5.038214 27.980307 0.217560 0.591909 -0.000005 0.000010 0.000000 0.000000 -0.000002 0.000000 
-3.636343 78.691544 46.888641 22.048995 9.910287 -16.544689 6.637299 5.288409 -10.907302 13.055925 6.293580 -7.904345 13.347410 6.075214 -7.565086 -10.841216 -5.905773 6.480935 -28.415513 -27.813321 20.654009 0.000000 0.000000 -0.000000 -0.092115 2.702615 5.828620 6.000712 -56.642045 -4.742958 -0.000004 -14.045324 0.000004 -12.566696 32.128862 -0.678490 0.013969 0.439244 -3.642312 0.025884 0.597745 -4.959523 0.006486 0.299164 -2.479700 -0.000000 -0.000001 0.000000 -3.708770 -5.344631 -9.285595 10.685384 16.536443 0.020115 2.736435 5.880188 2.697140 -0.000001 -0.000002 -0.000002 3.997527 12.510325 -8.958973 -10.425334 48.134146 5.005210 -0.000003 27.233595 -0.000010 -34.723060 -18.629503 -15.881221 30.781050 -1.172421 -0.415285 -3.811843 -9.893588 -4.088598 -5.411309 -0.640734 -3.421740 0.000003 0.000001 0.000001 0.571504 -2.765317 23.349789 0.452163 -2.470903 20.737568 0.113903 -1.255955 10.363898 0.000001 0.000001 0.000001 -65.032697 1.930480 12.995565 44.334976 3.217020 -4.678928 -3.266454 0.167007 7.769859 -0.229653 0.000002 -0.000002 0.000000 0.000000 0.000000 -15.400232 -22.182055 -15.788829 59.172879 2.538370 -5.560217 26.561943 -0.403241 -3.137796 0.000001 0.000000 0.000002 -0.000000 -0.000001 0.000000 
-2.907066 79.029816 47.951260 19.734336 10.131621 -16.650949 6.805627 3.299429 -11.184265 13.598743 3.889503 -7.802530 13.933255 3.691153 -7.263335 -11.042122 -5.260850 6.154313 -26.836809 -24.526729 21.862937 0.000001 0.000000 -0.000001 -0.010126 2.467382 6.291539 -4.516954 -57.349998 -6.544395 -0.000003 -12.909914 0.000040 -8.253491 33.941799 -1.231333 0.013967 0.439247 -3.642314 0.025886 0.597742 -4.959522 0.006483 0.299165 -2.479700 0.000003 -0.000004 -0.000000 -3.708774 -5.344630 -9.285595 10.685383 16.536448 0.020115 2.736437 5.880186 2.697138 -0.000001 -0.000002 0.000002 4.014307 12.203256 -10.530848 -11.929129 47.475583 1.373805 0.000014 25.955366 -0.000014 -33.487386 -15.171126 -15.600728 30.642787 -1.289754 -0.486939 -3.793408 -9.954147 -4.094004 -5.400739 -0.670394 -3.426456 0.000003 0.000001 -0.000000 0.569566 -2.760797 23.309289 0.448427 -2.460972 20.650541 0.112943 -1.250739 10.320445 -0.000000 0.000000 0.000001 -62.020665 2.271372 13.492603 45.864881 3.363769 -4.333965 -5.737411 0.052908 7.594782 -0.213958 -0.000009 -0.000003 0.000000 0.000000 0.000000 -17.805106 -23.345131 -15.961665 53.914621 5.685142 -6.207397 24.561318 -0.520407 -4.255641 0.327637 -0.008349 -1.374471 -0.000000 -0.000001 -0.000001 
-2.314701 79.410507 48.790791 17.671955 9.715504 -17.043438 6.901862 1.456784 -11.233464 13.977940 1.342839 -7.511206 14.346534 1.180232 -6.787087 -11.280664 -4.500155 5.694494 -25.107815 -20.711263 22.910541 0.000000 -0.000000 0.000001 0.040087 2.391980 6.536602 -14.161368 -57.684506 -8.797917 0.000001 -12.434986 0.000001 -4.075142 35.166499 -0.041613 0.013969 0.439248 -3.642317 0.025880 0.597744 -4.959525 0.006481 0.299163 -2.479703 -0.000003 0.000000 0.000001 -3.708770 -5.344624 -9.285588 10.685382 16.536448 0.020115 2.736439 5.880188 2.697140 -0.000000 -0.000000 0.000001 4.090222 12.091628 -12.180246 -14.671911 47.314964 -0.949917 0.000022 25.550213 -0.000026 -32.814254 -11.963690 -17.593355 30.501429 -1.409130 -0.560313 -3.774443 -10.016426 -4.099553 -5.389888 -0.700931 -3.431291 -0.000000 -0.000000 0.000000 0.567578 -2.756183 23.267929 0.444513 -2.450584 20.559336 0.111964 -1.245291 10.274938 0.000000 -0.000000 0.000000 -59.525611 2.785452 14.714090 47.079978 3.379658 -4.017424 -7.863321 -0.016697 7.429742 -0.197126 0.000005 0.000003 0.000000 0.000000 -0.000000 -20.458447 -25.085319 -16.990299 48.251964 8.990646 -7.040360 22.466015 0.707056 0.827470 -19.778558 -10.003637 25.590868 0.000001 0.000000 0.000001 
-1.877565 79.753708 49.415051 16.030864 8.739837 -17.459941 6.890149 -0.149495 -10.987030 14.108367 -1.059710 -7.041015 14.503096 -1.181699 -6.182899 -11.593082 -3.686050 5.108051 -23.563097 -16.758108 23.649827 -0.000000 -0.000000 -0.000001 0.035663 2.471874 6.864417 -22.723249 -58.249711 -11.598624 -0.000003 -12.128692 0.000004 -1.764164 34.972679 3.731310 0.013970 0.439247 -3.642318 0.025883 0.597744 -4.959526 0.006484 0.299163 -2.479704 -0.000005 -0.000001 0.000000 -3.708769 -5.344628 -9.285599 10.685383 16.536445 0.020114 2.736435 5.880185 2.697137 -0.000000 0.000000 0.000002 4.176819 12.023208 -13.752191 -21.900100 47.563026 1.421956 0.000003 26.176551 -0.000013 -31.274053 -9.891686 -20.505645 30.358326 -1.529404 -0.634679 -3.755172 -10.079740 -4.105250 -5.378832 -0.731992 -3.436201 0.000003 -0.000000 0.000000 0.565554 -2.751505 23.226072 0.440499 -2.439884 20.465163 0.110944 -1.239622 10.227880 0.000000 -0.000000 0.000002 -57.800756 3.854028 16.331510 48.003529 3.130693 -3.540276 -9.603480 -0.149877 7.273035 -0.116868 -0.000019 0.000001 0.000000 -0.000000 -0.000000 -23.588180 -26.307109 -18.585098 42.189249 9.737266 -7.367448 20.550567 4.672389 9.118958 -27.156240 -14.519054 26.466262 -0.000000 -0.000000 -0.000001 
